<?xml version="1.0" encoding="utf-8"?>
<!-- Generator: Adobe Illustrator 24.2.3, SVG Export Plug-In . SVG Version: 6.00 Build 0)  -->
<svg version="1.1" id="Capa_1" xmlns="http://www.w3.org/2000/svg" xmlns:xlink="http://www.w3.org/1999/xlink" x="0px" y="0px"
	 viewBox="0 0 70 70" style="enable-background:new 0 0 70 70;" xml:space="preserve">
<g>
	<path d="M41.9,14.3c-9,3.8-13.5,14.3-10,23.5c1.8,4.7,5,8.1,9.5,10.3c4.5,2.1,9.2,2.3,14,0.7c-5,7.1-15.7,11.3-25.8,7.1
		c-10.8-4.5-16.2-16.7-12.2-27.7C21.7,16.4,33.7,12.5,41.9,14.3z"/>
	<path d="M51,41.7c0,0.5-0.3,0.7-0.6,0.7c-0.7,0.1-1.4,0.2-2.2,0.3c-0.4,0-0.7,0.2-0.9,0.6c-0.3,0.7-0.6,1.3-1,2
		c-0.1,0.2-0.4,0.4-0.6,0.4s-0.5-0.2-0.6-0.4c-0.4-0.6-0.7-1.3-1-2c-0.2-0.3-0.4-0.5-0.8-0.6c-0.7-0.1-1.4-0.2-2.1-0.3
		c-0.2,0-0.5-0.2-0.7-0.4c-0.2-0.3,0-0.5,0.3-0.8c0.5-0.5,1-1,1.5-1.4c0.4-0.3,0.5-0.7,0.4-1.1c-0.1-0.6-0.2-1.3-0.3-1.9
		c0-0.2-0.1-0.5,0-0.7c0.1-0.3,0.5-0.4,0.9-0.2c0.7,0.4,1.4,0.7,2.1,1.1c0.3,0.2,0.6,0.2,0.9,0c0.7-0.4,1.3-0.7,2-1
		c0.2-0.1,0.6-0.1,0.8,0c0.2,0.1,0.2,0.5,0.2,0.7c-0.1,0.7-0.2,1.4-0.3,2.1c-0.1,0.5,0,0.8,0.4,1.1c0.5,0.5,1,1,1.5,1.5
		C50.9,41.4,50.9,41.6,51,41.7z"/>
</g>
</svg>
