<?xml version="1.0" encoding="utf-8"?>
<!-- Generator: Adobe Illustrator 24.2.3, SVG Export Plug-In . SVG Version: 6.00 Build 0)  -->
<svg version="1.1" id="Capa_1" xmlns="http://www.w3.org/2000/svg" xmlns:xlink="http://www.w3.org/1999/xlink" x="0px" y="0px"
	 viewBox="0 0 59.2 57.9" style="enable-background:new 0 0 59.2 57.9;" xml:space="preserve">
<path d="M43.2,28.7c0,7.5-6.1,13.6-13.6,13.6s-13.6-6.1-13.6-13.6c0-7.5,6.1-13.6,13.6-13.6c0.1,0,0.2,0,0.2,0
	C37.2,15.2,43.2,21.3,43.2,28.7z"/>
<path d="M34.2,43c2-0.6,3.9-1.7,5.6-3.1v6.5L34.2,43z"/>
<path d="M24.9,43.1l-5.5,3.4V40c0.9,0.6,1.7,1.2,2.6,1.7C22.9,42.2,23.9,42.6,24.9,43.1z"/>
<path d="M26.3,43.3c2.1,0.4,4.3,0.4,6.5,0l-3.2,5.7L26.3,43.3z"/>
<path d="M40.8,38.9c1.5-1.5,2.6-3.4,3.3-5.4c1.1,1.9,2.2,3.7,3.2,5.6L40.8,38.9z"/>
<path d="M15.1,33.5c0.7,2,1.8,3.8,3.3,5.4l-6.5,0.2L15.1,33.5z"/>
<path d="M9,28.9l5.4-2.9c-0.1,1-0.2,2-0.1,3c0,1,0.2,1.9,0.3,3L9,28.9z"/>
<path d="M50.2,28.9L44.5,32c0.5-2,0.5-4.1,0.2-6.1L50.2,28.9z"/>
<path d="M47.3,18.7l-3.1,5.3c-0.6-1.9-1.6-3.6-2.9-5.1L47.3,18.7z"/>
<path d="M11.8,18.7l5.9,0.2c-0.6,0.8-1.1,1.6-1.6,2.5c-0.5,0.8-0.8,1.7-1.3,2.6L11.8,18.7z"/>
<path d="M39.7,17.1L35,14.3l4.8-2.9L39.7,17.1z"/>
<path d="M19.4,17.3v-5.8l4.9,3c-0.9,0.4-1.8,0.8-2.6,1.3C20.9,16.2,20.2,16.7,19.4,17.3z"/>
<path d="M32.3,13.7h-5.5l2.8-4.9L32.3,13.7z"/>
</svg>
